<svg id="svg" version="1.1" xmlns="http://www.w3.org/2000/svg" xmlns:xlink="http://www.w3.org/1999/xlink" width="400" height="400" viewBox="0, 0, 400,400"><g id="svgg"><path id="path0" d="M270.518 143.704 C 268.769 149.446,266.632 151.604,260.724 153.595 C 258.896 154.211,257.670 154.805,258.000 154.914 C 266.742 157.819,268.457 159.328,270.594 166.000 C 271.566 169.035,271.770 169.116,272.374 166.703 C 273.809 160.969,276.414 157.975,281.517 156.191 C 283.213 155.599,284.870 155.018,285.200 154.902 C 285.530 154.785,284.542 154.294,283.000 153.809 C 276.518 151.769,273.986 149.141,272.348 142.749 C 271.696 140.203,271.563 140.272,270.518 143.704 M232.270 146.800 C 232.147 147.130,231.486 149.542,230.802 152.160 C 226.586 168.283,221.499 174.232,208.185 178.606 C 205.773 179.398,203.530 180.142,203.200 180.259 C 202.870 180.376,204.850 181.258,207.600 182.220 C 222.261 187.349,226.634 192.601,231.314 210.702 C 231.840 212.738,232.353 214.487,232.454 214.588 C 232.555 214.689,233.333 212.303,234.183 209.286 C 239.149 191.658,242.780 187.411,257.200 182.363 C 260.170 181.323,262.330 180.381,262.000 180.268 C 261.670 180.155,259.600 179.486,257.400 178.781 C 244.351 174.598,239.598 169.506,235.194 154.992 C 232.332 145.558,232.528 146.106,232.270 146.800 M73.800 178.166 C 53.565 182.111,42.818 204.160,51.985 222.923 C 60.650 240.658,84.867 245.632,99.430 232.668 C 102.144 230.252,102.229 230.685,98.178 226.302 C 94.027 221.812,94.574 222.002,91.619 224.019 C 79.295 232.431,63.699 226.150,61.529 211.900 C 59.481 198.454,70.520 187.527,83.556 190.096 C 86.607 190.697,88.478 191.551,93.086 194.449 L 94.372 195.257 97.686 191.788 C 102.488 186.761,102.463 187.020,98.457 183.989 C 91.394 178.644,82.329 176.503,73.800 178.166 M126.332 177.982 C 101.885 182.466,91.843 211.841,108.581 229.906 C 127.867 250.719,162.526 237.159,162.526 208.800 C 162.526 189.497,144.984 174.560,126.332 177.982 M179.000 178.016 C 169.861 179.889,164.983 185.675,165.017 194.600 C 165.051 203.519,168.160 207.037,181.600 213.367 C 190.312 217.470,192.069 219.239,191.396 223.222 C 190.304 229.685,180.019 230.378,172.918 224.466 C 169.741 221.823,169.790 221.814,166.436 225.614 C 162.944 229.570,162.916 229.956,165.900 232.876 C 179.750 246.429,203.400 239.696,203.400 222.200 C 203.400 213.124,200.640 209.962,186.642 203.000 C 177.877 198.640,176.800 197.747,176.800 194.835 C 176.800 188.217,185.635 186.958,192.903 192.539 C 195.454 194.497,195.569 194.463,198.587 190.900 C 202.241 186.587,202.270 186.317,199.365 183.720 C 193.891 178.823,185.933 176.594,179.000 178.016 M325.800 178.191 C 304.861 182.070,294.183 205.867,304.915 224.737 C 314.323 241.280,337.985 245.071,351.900 232.263 C 354.074 230.262,354.173 230.603,350.153 226.294 C 345.963 221.805,346.559 222.012,343.619 224.019 C 328.355 234.438,309.612 221.872,313.816 204.037 C 316.954 190.725,331.424 185.626,343.605 193.540 C 346.535 195.444,346.143 195.586,350.333 191.114 C 354.083 187.112,354.013 187.308,352.300 185.595 C 346.026 179.322,335.528 176.389,325.800 178.191 M267.047 179.022 C 266.675 179.992,266.762 237.721,267.137 238.311 C 267.381 238.697,268.883 238.795,273.231 238.711 L 279.000 238.600 279.000 208.600 L 279.000 178.600 273.147 178.490 C 268.073 178.394,267.261 178.465,267.047 179.022 M284.655 179.290 C 284.135 181.230,284.372 237.409,284.903 238.135 C 285.345 238.740,286.090 238.810,291.003 238.712 L 296.600 238.600 296.600 208.600 L 296.600 178.600 290.749 178.490 C 284.958 178.380,284.896 178.388,284.655 179.290 M137.734 190.743 C 145.233 193.379,149.991 200.388,149.991 208.800 C 149.991 231.357,118.582 235.074,113.408 213.130 C 109.968 198.537,123.771 185.835,137.734 190.743 M215.612 225.500 L 215.600 238.800 221.427 238.800 L 227.254 238.800 226.976 237.900 C 226.824 237.405,225.749 234.840,224.588 232.200 C 223.428 229.560,221.102 224.263,219.419 220.429 C 217.737 216.595,216.195 213.175,215.992 212.829 C 215.763 212.437,215.620 217.209,215.612 225.500 M247.330 218.500 C 245.984 221.635,243.440 227.485,241.676 231.500 L 238.469 238.800 244.434 238.800 L 250.400 238.800 250.400 225.800 C 250.400 218.650,250.260 212.800,250.088 212.800 C 249.916 212.800,248.675 215.365,247.330 218.500 " stroke="none" fill="#fbfbfb" fill-rule="evenodd"></path><path id="path1" d="M0.000 200.000 L 0.000 400.000 200.000 400.000 L 400.000 400.000 400.000 200.000 L 400.000 0.000 200.000 0.000 L 0.000 0.000 0.000 200.000 M272.348 142.749 C 273.986 149.141,276.518 151.769,283.000 153.809 C 284.542 154.294,285.530 154.785,285.200 154.902 C 284.870 155.018,283.213 155.599,281.517 156.191 C 276.414 157.975,273.809 160.969,272.374 166.703 C 271.770 169.116,271.566 169.035,270.594 166.000 C 268.457 159.328,266.742 157.819,258.000 154.914 C 257.670 154.805,258.896 154.211,260.724 153.595 C 266.632 151.604,268.769 149.446,270.518 143.704 C 271.563 140.272,271.696 140.203,272.348 142.749 M235.194 154.992 C 239.598 169.506,244.351 174.598,257.400 178.781 C 259.600 179.486,261.670 180.155,262.000 180.268 C 262.330 180.381,260.170 181.323,257.200 182.363 C 242.780 187.411,239.149 191.658,234.183 209.286 C 233.333 212.303,232.555 214.689,232.454 214.588 C 232.353 214.487,231.840 212.738,231.314 210.702 C 226.634 192.601,222.261 187.349,207.600 182.220 C 204.850 181.258,202.870 180.376,203.200 180.259 C 203.530 180.142,205.773 179.398,208.185 178.606 C 221.499 174.232,226.586 168.283,230.802 152.160 C 231.486 149.542,232.147 147.130,232.270 146.800 C 232.528 146.106,232.332 145.558,235.194 154.992 M87.800 178.574 C 92.306 179.771,100.621 184.715,101.358 186.634 C 101.693 187.509,101.457 187.841,97.686 191.788 L 94.372 195.257 93.086 194.449 C 88.478 191.551,86.607 190.697,83.556 190.096 C 70.520 187.527,59.481 198.454,61.529 211.900 C 63.699 226.150,79.295 232.431,91.619 224.019 C 94.574 222.002,94.027 221.812,98.178 226.302 C 102.229 230.685,102.144 230.252,99.430 232.668 C 84.867 245.632,60.650 240.658,51.985 222.923 C 40.165 198.728,61.979 171.715,87.800 178.574 M139.600 178.621 C 158.350 183.370,167.954 204.721,159.383 222.600 C 148.925 244.414,117.214 245.856,104.858 225.079 C 90.493 200.924,112.336 171.715,139.600 178.621 M189.362 178.390 C 195.112 179.861,202.032 184.676,201.471 186.817 C 201.135 188.097,196.134 194.000,195.384 194.000 C 195.067 194.000,193.950 193.342,192.903 192.539 C 185.635 186.958,176.800 188.217,176.800 194.835 C 176.800 197.747,177.877 198.640,186.642 203.000 C 200.640 209.962,203.400 213.124,203.400 222.200 C 203.400 239.696,179.750 246.429,165.900 232.876 C 162.916 229.956,162.944 229.570,166.436 225.614 C 169.790 221.814,169.741 221.823,172.918 224.466 C 180.019 230.378,190.304 229.685,191.396 223.222 C 192.069 219.239,190.312 217.470,181.600 213.367 C 168.160 207.037,165.051 203.519,165.017 194.600 C 164.970 182.322,176.005 174.974,189.362 178.390 M337.600 178.172 C 342.988 179.150,348.778 182.074,352.300 185.595 C 354.013 187.308,354.083 187.112,350.333 191.114 C 346.143 195.586,346.535 195.444,343.605 193.540 C 331.424 185.626,316.954 190.725,313.816 204.037 C 309.612 221.872,328.355 234.438,343.619 224.019 C 346.559 222.012,345.963 221.805,350.153 226.294 C 354.173 230.603,354.074 230.262,351.900 232.263 C 337.985 245.071,314.323 241.280,304.915 224.737 C 291.578 201.286,311.169 173.377,337.600 178.172 M279.000 208.600 L 279.000 238.600 273.231 238.711 C 268.883 238.795,267.381 238.697,267.137 238.311 C 266.762 237.721,266.675 179.992,267.047 179.022 C 267.261 178.465,268.073 178.394,273.147 178.490 L 279.000 178.600 279.000 208.600 M296.600 208.600 L 296.600 238.600 291.003 238.712 C 286.090 238.810,285.345 238.740,284.903 238.135 C 284.372 237.409,284.135 181.230,284.655 179.290 C 284.896 178.388,284.958 178.380,290.749 178.490 L 296.600 178.600 296.600 208.600 M127.600 190.013 C 117.564 192.118,110.982 202.839,113.408 213.130 C 118.582 235.074,149.991 231.357,149.991 208.800 C 149.991 196.536,139.294 187.561,127.600 190.013 M219.419 220.429 C 221.102 224.263,223.428 229.560,224.588 232.200 C 225.749 234.840,226.824 237.405,226.976 237.900 L 227.254 238.800 221.427 238.800 L 215.600 238.800 215.612 225.500 C 215.620 217.209,215.763 212.437,215.992 212.829 C 216.195 213.175,217.737 216.595,219.419 220.429 M250.400 225.800 L 250.400 238.800 244.434 238.800 L 238.469 238.800 241.676 231.500 C 243.440 227.485,245.984 221.635,247.330 218.500 C 248.675 215.365,249.916 212.800,250.088 212.800 C 250.260 212.800,250.400 218.650,250.400 225.800 " stroke="none" fill="#048484" fill-rule="evenodd"></path></g></svg>